<svg width="14" height="14" viewBox="0 0 14 14" fill="none" xmlns="http://www.w3.org/2000/svg">
<path fill-rule="evenodd" clip-rule="evenodd" d="M6.42093 0.149902C6.02389 0.149902 5.67975 0.42476 5.59196 0.811974L5.35388 1.86213C4.97488 1.97235 4.61333 2.12329 4.27434 2.30979L3.36333 1.73551C3.02746 1.52379 2.58976 1.57278 2.30901 1.85352L1.70292 2.45962C1.42218 2.74036 1.37318 3.17806 1.58491 3.51393L2.1594 4.42527C1.97305 4.76416 1.82225 5.1256 1.71214 5.50447L0.662066 5.74253C0.274859 5.83031 0 6.17446 0 6.57149V7.42863C0 7.82567 0.274859 8.16982 0.662066 8.2576L1.71226 8.49569C1.82244 8.87466 1.97333 9.23618 2.15977 9.57516L1.58538 10.4864C1.37365 10.8222 1.42265 11.2599 1.70339 11.5407L2.30949 12.1468C2.59023 12.4275 3.02793 12.4765 3.3638 12.2648L4.27504 11.6904C4.61382 11.8767 4.97514 12.0275 5.35388 12.1376L5.59196 13.1878C5.67975 13.575 6.02389 13.8499 6.42093 13.8499H7.27807C7.6751 13.8499 8.01925 13.575 8.10703 13.1878L8.34503 12.138C8.72409 12.0279 9.0857 11.877 9.42478 11.6906L10.336 12.265C10.6718 12.4767 11.1095 12.4277 11.3903 12.147L11.9964 11.5409C12.2771 11.2601 12.3261 10.8224 12.1144 10.4866L11.5402 9.57566C11.7268 9.23654 11.8778 8.87481 11.988 8.49562L13.0379 8.2576C13.4251 8.16982 13.7 7.82567 13.7 7.42863V6.57149C13.7 6.17446 13.4251 5.83031 13.0379 5.74253L11.9881 5.50454C11.878 5.12544 11.7271 4.7638 11.5406 4.42473L12.1148 3.51373C12.3266 3.17786 12.2776 2.74016 11.9968 2.45941L11.3907 1.85332C11.11 1.57258 10.6723 1.52358 10.3364 1.73531L9.42548 2.30955C9.08619 2.12294 8.72435 1.97195 8.34503 1.86175L8.10703 0.811974C8.01925 0.42476 7.6751 0.149902 7.27807 0.149902H6.42093ZM4.27051 3.31217C4.79722 2.94305 5.40663 2.6839 6.06541 2.56805L6.42093 0.999904H7.27807L7.63353 2.56782C8.29265 2.68353 8.90238 2.94268 9.42938 3.3119L10.7897 2.45436L11.3958 3.06045L10.5382 4.42083C10.9073 4.94764 11.1664 5.55716 11.2821 6.21604L12.85 6.57149V7.42863L11.282 7.7841C11.1662 8.44308 10.907 9.05267 10.5378 9.57946L11.3953 10.9399L10.7892 11.5459L9.42868 10.6883C8.9019 11.0573 8.29239 11.3163 7.63353 11.432L7.27807 12.9999H6.42093L6.06541 11.4317C5.40688 11.3159 4.7977 11.0569 4.27114 10.688L2.91053 11.5457L2.30443 10.9396L3.16211 9.57906C2.79308 9.05232 2.53401 8.44292 2.41823 7.78416L0.849996 7.42863V6.57149L2.41816 6.21598C2.53386 5.55731 2.79281 4.94799 3.16169 4.42131L2.30396 3.06066L2.91006 2.45457L4.27051 3.31217ZM8.37494 6.99974C8.37494 7.84192 7.69221 8.52465 6.85003 8.52465C6.00784 8.52465 5.32511 7.84192 5.32511 6.99974C5.32511 6.15755 6.00784 5.47482 6.85003 5.47482C7.69221 5.47482 8.37494 6.15755 8.37494 6.99974ZM9.27494 6.99974C9.27494 8.33898 8.18927 9.42465 6.85003 9.42465C5.51078 9.42465 4.42511 8.33898 4.42511 6.99974C4.42511 5.6605 5.51078 4.57482 6.85003 4.57482C8.18927 4.57482 9.27494 5.6605 9.27494 6.99974Z" fill="#A1A14C"/>
</svg>
