<svg width="12" height="12" viewBox="0 0 12 12" fill="none" xmlns="http://www.w3.org/2000/svg">
<path d="M1 4.88889H11M3.22222 1V2.11111M8.77778 1V2.11111M2.77778 11H9.22222C9.8445 11 10.1557 11 10.3933 10.8789C10.6024 10.7724 10.7724 10.6024 10.8789 10.3933C11 10.1557 11 9.8445 11 9.22222V3.88889C11 3.26661 11 2.95547 10.8789 2.71779C10.7724 2.50872 10.6024 2.33874 10.3933 2.23222C10.1557 2.11111 9.8445 2.11111 9.22222 2.11111H2.77778C2.1555 2.11111 1.84436 2.11111 1.60668 2.23222C1.39761 2.33874 1.22763 2.50872 1.12111 2.71779C1 2.95547 1 3.26661 1 3.88889V9.22222C1 9.8445 1 10.1557 1.12111 10.3933C1.22763 10.6024 1.39761 10.7724 1.60668 10.8789C1.84436 11 2.15549 11 2.77778 11Z" stroke="#A9A9A9" stroke-width="1.5" stroke-linecap="round" stroke-linejoin="round"/>
</svg>
