<svg width="9" height="10" viewBox="0 0 9 10" fill="none" xmlns="http://www.w3.org/2000/svg">
<path d="M8.86813 8.73142C8.90994 8.77322 8.9431 8.82286 8.96573 8.87748C8.98835 8.9321 9 8.99065 9 9.04977C9 9.1089 8.98835 9.16744 8.96573 9.22207C8.9431 9.27669 8.90994 9.32632 8.86813 9.36813C8.82632 9.40994 8.77669 9.4431 8.72207 9.46573C8.66744 9.48835 8.6089 9.5 8.54977 9.5C8.49065 9.5 8.4321 9.48835 8.37748 9.46573C8.32286 9.4431 8.27322 9.40994 8.23142 9.36813L4.5 5.63615L0.768582 9.36813C0.684149 9.45257 0.569632 9.5 0.450225 9.5C0.330818 9.5 0.216301 9.45257 0.131868 9.36813C0.0474343 9.2837 2.3538e-09 9.16918 0 9.04977C-2.3538e-09 8.93037 0.0474343 8.81585 0.131868 8.73142L3.86385 5L0.131868 1.26858C0.0474343 1.18415 0 1.06963 0 0.950225C0 0.830818 0.0474343 0.716301 0.131868 0.631868C0.216301 0.547434 0.330818 0.5 0.450225 0.5C0.569632 0.5 0.684149 0.547434 0.768582 0.631868L4.5 4.36385L8.23142 0.631868C8.31585 0.547434 8.43037 0.5 8.54977 0.5C8.66918 0.5 8.7837 0.547434 8.86813 0.631868C8.95257 0.716301 9 0.830818 9 0.950225C9 1.06963 8.95257 1.18415 8.86813 1.26858L5.13615 5L8.86813 8.73142Z" fill="#A1A14C"/>
</svg>
