<svg width="35" height="34" viewBox="0 0 35 34" fill="none" xmlns="http://www.w3.org/2000/svg">
<ellipse cx="17.5" cy="17.5" rx="15.5" ry="16.5" fill="white"/>
<path fill-rule="evenodd" clip-rule="evenodd" d="M17.4984 0C8.15816 0 0.583344 7.57384 0.583344 16.9172C0.583344 24.3903 5.43003 30.7314 12.1522 32.9693C12.9986 33.124 13.3071 32.6018 13.3071 32.1531C13.3071 31.7511 13.2925 30.6878 13.2842 29.2763C8.57877 30.2983 7.58596 27.0083 7.58596 27.0083C6.81642 25.0539 5.70732 24.5336 5.70732 24.5336C4.17138 23.4848 5.82364 23.5055 5.82364 23.5055C7.52158 23.625 8.41469 25.2492 8.41469 25.2492C9.92363 27.8339 12.3745 27.0872 13.3382 26.6541C13.4919 25.5617 13.9291 24.8159 14.412 24.3934C10.6558 23.9654 6.70636 22.5148 6.70636 16.0324C6.70636 14.1849 7.36581 12.676 8.44791 11.4931C8.27345 11.0653 7.69294 9.34549 8.61407 7.01612C8.61407 7.01612 10.0337 6.56124 13.2655 8.74937C14.6145 8.37447 16.0622 8.18755 17.5005 8.18027C18.9378 8.18755 20.3845 8.37447 21.7355 8.74937C24.9653 6.56124 26.3828 7.01612 26.3828 7.01612C27.3061 9.34549 26.7255 11.0653 26.5522 11.4931C27.6362 12.676 28.2905 14.1849 28.2905 16.0324C28.2905 22.5314 24.3348 23.9615 20.5672 24.3798C21.1737 24.9023 21.7148 25.9345 21.7148 27.513C21.7148 29.7738 21.694 31.5985 21.694 32.1531C21.694 32.6058 21.9993 33.1324 22.8571 32.9672C29.5741 30.7251 34.4167 24.3892 34.4167 16.9172C34.4167 7.57384 26.8417 0 17.4984 0Z" fill="#333333"/>
</svg>
