<svg width="26" height="20" viewBox="0 0 26 20" fill="none" xmlns="http://www.w3.org/2000/svg">
<path d="M7.15 12.9838C7.85947 12.9817 8.56129 12.8154 9.21351 12.495C9.86573 12.1746 10.455 11.7066 10.946 11.1189C11.1888 10.7568 11.5009 10.4635 11.8582 10.2616C12.2154 10.0598 12.6083 9.95486 13.0065 9.95486C13.4047 9.95486 13.7976 10.0598 14.1548 10.2616C14.5121 10.4635 14.8242 10.7568 15.067 11.1189C15.5533 11.7128 16.1404 12.1861 16.7921 12.5096C17.4438 12.8331 18.1464 13 18.8565 13C19.5666 13 20.2692 12.8331 20.9209 12.5096C21.5726 12.1861 22.1597 11.7128 22.646 11.1189C22.8982 10.774 23.2122 10.4955 23.5667 10.3024C23.9211 10.1093 24.3077 10.0062 24.7 10C25.0448 10 25.3754 9.84282 25.6192 9.56304C25.863 9.28325 26 8.90379 26 8.50812C26 8.11244 25.863 7.73298 25.6192 7.4532C25.3754 7.17341 25.0448 7.01623 24.7 7.01623C23.992 7.01516 23.2913 7.18002 22.6408 7.50068C21.9903 7.82135 21.4037 8.29108 20.917 8.88109C20.6742 9.24323 20.3621 9.53653 20.0048 9.73835C19.6476 9.94018 19.2547 10.0451 18.8565 10.0451C18.4583 10.0451 18.0654 9.94018 17.7082 9.73835C17.3509 9.53653 17.0388 9.24323 16.796 8.88109C16.3097 8.28722 15.7226 7.81394 15.0709 7.49042C14.4192 7.1669 13.7166 7 13.0065 7C12.2964 7 11.5938 7.1669 10.9421 7.49042C10.2904 7.81394 9.70326 8.28722 9.217 8.88109C8.97415 9.24323 8.66207 9.53653 8.30482 9.73835C7.94757 9.94018 7.55469 10.0451 7.1565 10.0451C6.75831 10.0451 6.36543 9.94018 6.00818 9.73835C5.65093 9.53653 5.33885 9.24323 5.096 8.88109C4.60497 8.29342 4.01573 7.82538 3.36351 7.50497C2.71129 7.18455 2.00947 7.01833 1.3 7.01623C0.955219 7.01623 0.624557 7.17341 0.38076 7.4532C0.136965 7.73298 0 8.11244 0 8.50812C0 8.90379 0.136965 9.28325 0.38076 9.56304C0.624557 9.84282 0.955219 10 1.3 10C1.69423 10.006 2.08275 10.109 2.43933 10.302C2.79591 10.495 3.11225 10.7736 3.367 11.1189C3.85373 11.7089 4.44032 12.1786 5.09082 12.4993C5.74132 12.82 6.44203 12.9848 7.15 12.9838Z" fill="#ACF914"/>
<path d="M7.15 5.00679C7.85947 5.00504 8.56129 4.86595 9.21351 4.59785C9.86573 4.32975 10.455 3.93814 10.946 3.44641C11.1888 3.14339 11.5009 2.89799 11.8582 2.72911C12.2154 2.56024 12.6083 2.47242 13.0065 2.47242C13.4047 2.47242 13.7976 2.56024 14.1548 2.72911C14.5121 2.89799 14.8242 3.14339 15.067 3.44641C15.5533 3.94332 16.1404 4.33932 16.7921 4.61002C17.4438 4.88072 18.1464 5.02037 18.8565 5.02037C19.5666 5.02037 20.2692 4.88072 20.9209 4.61002C21.5726 4.33932 22.1597 3.94332 22.646 3.44641C22.8982 3.15779 23.2122 2.92476 23.5667 2.7632C23.9211 2.60164 24.3077 2.51534 24.7 2.51019C25.0448 2.51019 25.3754 2.37867 25.6192 2.14457C25.863 1.91047 26 1.59295 26 1.26188C26 0.930814 25.863 0.613304 25.6192 0.379202C25.3754 0.1451 25.0448 0.0135824 24.7 0.0135824C23.992 0.0126886 23.2913 0.150624 22.6408 0.418936C21.9903 0.687248 21.4037 1.08029 20.917 1.57396C20.6742 1.87698 20.3621 2.12239 20.0048 2.29126C19.6476 2.46013 19.2547 2.54796 18.8565 2.54796C18.4583 2.54796 18.0654 2.46013 17.7082 2.29126C17.3509 2.12239 17.0388 1.87698 16.796 1.57396C16.3097 1.07706 15.7226 0.68105 15.0709 0.410352C14.4192 0.139654 13.7166 0 13.0065 0C12.2964 0 11.5938 0.139654 10.9421 0.410352C10.2904 0.68105 9.70326 1.07706 9.217 1.57396C8.97415 1.87698 8.66207 2.12239 8.30482 2.29126C7.94757 2.46013 7.55469 2.54796 7.1565 2.54796C6.75831 2.54796 6.36543 2.46013 6.00818 2.29126C5.65093 2.12239 5.33885 1.87698 5.096 1.57396C4.60497 1.08224 4.01573 0.690623 3.36351 0.422522C2.71129 0.154421 2.00947 0.015337 1.3 0.0135824C0.955219 0.0135824 0.624557 0.1451 0.38076 0.379202C0.136965 0.613304 0 0.930814 0 1.26188C0 1.59295 0.136965 1.91047 0.38076 2.14457C0.624557 2.37867 0.955219 2.51019 1.3 2.51019C1.69423 2.51519 2.08275 2.60136 2.43933 2.76287C2.79591 2.92438 3.11225 3.15747 3.367 3.44641C3.85373 3.94009 4.44032 4.33312 5.09082 4.60144C5.74132 4.86975 6.44203 5.00768 7.15 5.00679ZM3.367 18.426C3.11225 18.1371 2.79591 17.904 2.43933 17.7425C2.08275 17.581 1.69423 17.4948 1.3 17.4898C0.955219 17.4898 0.624557 17.3583 0.38076 17.1242C0.136965 16.8901 0 16.5726 0 16.2415C0 15.9104 0.136965 15.5929 0.38076 15.3588C0.624557 15.1247 0.955219 14.9932 1.3 14.9932C2.00947 14.995 2.71129 15.134 3.36351 15.4021C4.01573 15.6702 4.60497 16.0619 5.096 16.5536C5.33885 16.8566 5.65093 17.102 6.00818 17.2709C6.36543 17.4398 6.75831 17.5276 7.1565 17.5276C7.55469 17.5276 7.94757 17.4398 8.30482 17.2709C8.66207 17.102 8.97415 16.8566 9.217 16.5536C9.70326 16.0567 10.2904 15.6607 10.9421 15.39C11.5938 15.1193 12.2964 14.9796 13.0065 14.9796C13.7166 14.9796 14.4192 15.1193 15.0709 15.39C15.7226 15.6607 16.3097 16.0567 16.796 16.5536C17.0388 16.8566 17.3509 17.102 17.7082 17.2709C18.0654 17.4398 18.4583 17.5276 18.8565 17.5276C19.2547 17.5276 19.6476 17.4398 20.0048 17.2709C20.3621 17.102 20.6742 16.8566 20.917 16.5536C21.4037 16.0599 21.9903 15.6669 22.6408 15.3986C23.2913 15.1302 23.992 14.9923 24.7 14.9932C25.0448 14.9932 25.3754 15.1247 25.6192 15.3588C25.863 15.5929 26 15.9104 26 16.2415C26 16.5726 25.863 16.8901 25.6192 17.1242C25.3754 17.3583 25.0448 17.4898 24.7 17.4898C24.3077 17.495 23.9211 17.5813 23.5667 17.7428C23.2122 17.9044 22.8982 18.1374 22.646 18.426C22.1597 18.9229 21.5726 19.3189 20.9209 19.5896C20.2692 19.8603 19.5666 20 18.8565 20C18.1464 20 17.4438 19.8603 16.7921 19.5896C16.1404 19.3189 15.5533 18.9229 15.067 18.426C14.8242 18.123 14.5121 17.8776 14.1548 17.7087C13.7976 17.5399 13.4047 17.452 13.0065 17.452C12.6083 17.452 12.2154 17.5399 11.8582 17.7087C11.5009 17.8776 11.1888 18.123 10.946 18.426C10.4597 18.9229 9.87265 19.3189 9.22091 19.5896C8.56917 19.8603 7.8666 20 7.1565 20C6.4464 20 5.74383 19.8603 5.09209 19.5896C4.44035 19.3189 3.85326 18.9229 3.367 18.426Z" fill="black"/>
</svg>
