<svg width="18" height="18" viewBox="0 0 18 18" fill="none" xmlns="http://www.w3.org/2000/svg">
  <path d="M3.24762 3.38657C3.13953 3.53891 3.13953 3.75465 3.13953 4.18616C3.13953 4.61767 3.13953 4.83341 3.24762 4.98575C3.28576 5.03951 3.3327 5.08644 3.38644 5.12458C3.53878 5.23267 3.75453 5.23267 4.18604 5.23267C4.61754 5.23267 4.83329 5.23267 4.98563 5.12458C5.03939 5.08644 5.08632 5.03951 5.12446 4.98575C5.23255 4.83341 5.23255 4.61767 5.23255 4.18616C5.23255 3.75465 5.23255 3.53891 5.12446 3.38657C5.08632 3.33282 5.03939 3.28588 4.98563 3.24774C4.83329 3.13965 4.61754 3.13965 4.18604 3.13965C3.75453 3.13965 3.53878 3.13965 3.38644 3.24774C3.3327 3.28588 3.28576 3.33282 3.24762 3.38657Z" fill="#0D0D0D"/>
  <path fill-rule="evenodd" clip-rule="evenodd" d="M6.24068 0.0336645C6.61103 0.0688775 6.95617 0.145281 7.27273 0.339271C7.58252 0.529108 7.84298 0.789572 8.03286 1.09936C8.22684 1.41593 8.30319 1.76106 8.33844 2.13141C8.37209 2.48567 8.37209 2.92182 8.37209 3.44446V4.43888C8.37209 5.19108 8.37218 5.81836 8.3052 6.31631C8.23454 6.84191 8.07907 7.31644 7.69772 7.69772C7.31644 8.07907 6.84191 8.23454 6.31631 8.3052C5.81836 8.37218 5.19112 8.37209 4.43891 8.37209H3.44453C2.92189 8.37209 2.48567 8.37209 2.13141 8.33844C1.76106 8.30319 1.41593 8.22684 1.09936 8.03285C0.789572 7.84297 0.529108 7.58252 0.339271 7.27273C0.145281 6.95617 0.0688775 6.61103 0.0336645 6.24068C-2.48385e-05 5.88642 -8.1019e-06 5.45023 2.70191e-07 4.92757V4.86615C-8.1019e-06 4.07075 -1.648e-05 3.42926 0.0490858 2.91288C0.0997203 2.38034 0.206967 1.91636 0.462642 1.49913C0.721516 1.07669 1.07669 0.721515 1.49913 0.462642C1.91636 0.206967 2.38034 0.0997202 2.91288 0.0490858C3.42927 -1.648e-05 4.07074 -8.1019e-06 4.86614 2.70191e-07H4.92755C5.45022 -8.1019e-06 5.88642 -2.48385e-05 6.24068 0.0336645ZM6.12182 1.28384C5.83405 1.25648 5.45794 1.25581 4.89767 1.25581C4.06335 1.25581 3.4817 1.25648 3.03174 1.29926C2.59113 1.34115 2.34204 1.41896 2.15529 1.5334C1.90183 1.68873 1.68873 1.90183 1.5334 2.15529C1.41896 2.34204 1.34115 2.59113 1.29926 3.03174C1.25648 3.4817 1.25581 4.06335 1.25581 4.89767C1.25581 5.45794 1.25648 5.83405 1.28384 6.12182C1.31031 6.40024 1.35728 6.53048 1.41003 6.61656C1.49632 6.75738 1.61471 6.87577 1.75553 6.96206C1.84161 7.01482 1.97185 7.06178 2.25028 7.08826C2.53804 7.11562 2.91415 7.11628 3.47442 7.11628H4.39535C5.20243 7.11628 5.74457 7.11495 6.14898 7.06058C6.53531 7.00863 6.70066 6.91886 6.80977 6.80977C6.91886 6.70066 7.00863 6.53531 7.06058 6.14897C7.11495 5.74457 7.11628 5.20243 7.11628 4.39535V3.47442C7.11628 2.91415 7.11562 2.53804 7.08826 2.25028C7.06178 1.97185 7.01482 1.84161 6.96206 1.75553C6.87577 1.61471 6.75738 1.49632 6.61657 1.41003C6.53048 1.35728 6.40024 1.31031 6.12182 1.28384Z" fill="#0D0D0D"/>
  <path d="M12.8755 3.38657C12.7675 3.53891 12.7675 3.75465 12.7675 4.18616C12.7675 4.61767 12.7675 4.83341 12.8755 4.98575C12.9137 5.03951 12.9606 5.08644 13.0143 5.12458C13.1667 5.23267 13.3825 5.23267 13.814 5.23267C14.2455 5.23267 14.4612 5.23267 14.6136 5.12458C14.6673 5.08644 14.7142 5.03951 14.7524 4.98575C14.8605 4.83341 14.8605 4.61767 14.8605 4.18616C14.8605 3.75465 14.8605 3.53891 14.7524 3.38657C14.7142 3.33282 14.6673 3.28588 14.6136 3.24774C14.4612 3.13965 14.2455 3.13965 13.814 3.13965C13.3825 3.13965 13.1667 3.13965 13.0143 3.24774C12.9606 3.28588 12.9137 3.33282 12.8755 3.38657Z" fill="#0D0D0D"/>
  <path fill-rule="evenodd" clip-rule="evenodd" d="M13.0724 2.70191e-07H13.1339C13.9292 -8.1019e-06 14.5707 -1.648e-05 15.0871 0.0490858C15.6196 0.0997202 16.0836 0.206967 16.5009 0.462642C16.9233 0.721515 17.2785 1.07669 17.5373 1.49913C17.793 1.91636 17.9003 2.38034 17.9509 2.91288C18 3.42927 18 4.07074 18 4.86614V4.92756C18 5.45023 18 5.88642 17.9663 6.24068C17.9311 6.61103 17.8547 6.95617 17.6607 7.27273C17.4709 7.58252 17.2104 7.84297 16.9006 8.03285C16.5841 8.22684 16.2389 8.30319 15.8686 8.33844C15.5143 8.37209 15.0782 8.37209 14.5556 8.37209H13.5611C12.8089 8.37209 12.1816 8.37218 11.6837 8.3052C11.1581 8.23454 10.6835 8.07907 10.3023 7.69772C9.92091 7.31644 9.76544 6.84191 9.69478 6.31631C9.62781 5.81835 9.62789 5.1911 9.62789 4.43888V3.44454C9.62789 2.92187 9.62789 2.48568 9.66155 2.13141C9.69679 1.76106 9.77315 1.41593 9.96713 1.09936C10.157 0.789572 10.4175 0.529108 10.7272 0.339271C11.0438 0.145281 11.389 0.0688775 11.7593 0.0336645C12.1136 -2.48385e-05 12.5498 -8.1019e-06 13.0724 2.70191e-07ZM11.8781 1.28384C11.5998 1.31031 11.4695 1.35728 11.3834 1.41003C11.2426 1.49632 11.1242 1.61471 11.0379 1.75553C10.9852 1.84161 10.9382 1.97185 10.9118 2.25028C10.8844 2.53804 10.8837 2.91415 10.8837 3.47442V4.39535C10.8837 5.20243 10.885 5.74457 10.9394 6.14897C10.9914 6.53531 11.0811 6.70066 11.1902 6.80977C11.2993 6.91886 11.4646 7.00863 11.851 7.06058C12.2554 7.11495 12.7976 7.11628 13.6046 7.11628H14.5256C15.0858 7.11628 15.4619 7.11562 15.7497 7.08826C16.0281 7.06178 16.1584 7.01482 16.2444 6.96206C16.3853 6.87577 16.5036 6.75738 16.59 6.61656C16.6427 6.53048 16.6897 6.40024 16.7161 6.12182C16.7435 5.83405 16.7442 5.45794 16.7442 4.89767C16.7442 4.06335 16.7435 3.4817 16.7007 3.03174C16.6589 2.59113 16.581 2.34204 16.4666 2.15529C16.3112 1.90183 16.0982 1.68873 15.8447 1.5334C15.658 1.41896 15.4088 1.34115 14.9683 1.29926C14.5183 1.25648 13.9367 1.25581 13.1023 1.25581C12.542 1.25581 12.166 1.25648 11.8781 1.28384Z" fill="#0D0D0D"/>
  <path d="M3.13953 13.8141C3.13953 13.3826 3.13953 13.1668 3.24762 13.0145C3.28576 12.9607 3.3327 12.9138 3.38644 12.8757C3.53878 12.7676 3.75453 12.7676 4.18604 12.7676C4.61754 12.7676 4.83329 12.7676 4.98563 12.8757C5.03939 12.9138 5.08632 12.9607 5.12446 13.0145C5.23255 13.1668 5.23255 13.3826 5.23255 13.8141C5.23255 14.2456 5.23255 14.4613 5.12446 14.6137C5.08632 14.6675 5.03939 14.7143 4.98563 14.7525C4.83329 14.8606 4.61754 14.8606 4.18604 14.8606C3.75453 14.8606 3.53878 14.8606 3.38644 14.7525C3.3327 14.7143 3.28576 14.6675 3.24762 14.6137C3.13953 14.4613 3.13953 14.2456 3.13953 13.8141Z" fill="#0D0D0D"/>
  <path fill-rule="evenodd" clip-rule="evenodd" d="M6.31631 9.69482C6.84191 9.76548 7.31644 9.92095 7.69772 10.3023C8.07907 10.6836 8.23454 11.1581 8.3052 11.6837C8.37218 12.1817 8.37209 12.8089 8.37209 13.5611V14.5555C8.37209 15.0781 8.37209 15.5143 8.33844 15.8687C8.30319 16.239 8.22684 16.5841 8.03286 16.9007C7.84298 17.2104 7.58252 17.4709 7.27273 17.6608C6.95617 17.8548 6.61103 17.9311 6.24068 17.9664C5.88642 18 5.45023 18 4.92756 18H4.86614C4.07074 18 3.42927 18 2.91288 17.951C2.38034 17.9003 1.91636 17.7931 1.49913 17.5374C1.07669 17.2785 0.721516 16.9234 0.462642 16.5009C0.206967 16.0836 0.0997203 15.6197 0.0490858 15.0871C-1.648e-05 14.5707 -8.1019e-06 13.9293 2.70191e-07 13.1339V13.0725C-8.1019e-06 12.5498 -2.48385e-05 12.1136 0.0336645 11.7594C0.0688775 11.389 0.145281 11.0438 0.339271 10.7273C0.529108 10.4175 0.789572 10.157 1.09936 9.96717C1.41593 9.77319 1.76106 9.69683 2.13141 9.66159C2.48568 9.62793 2.92187 9.62793 3.44454 9.62793H4.43888C5.1911 9.62793 5.81835 9.62785 6.31631 9.69482ZM6.14898 10.9394C5.74457 10.8851 5.20243 10.8837 4.39535 10.8837H3.47442C2.91415 10.8837 2.53804 10.8844 2.25028 10.9118C1.97185 10.9382 1.84161 10.9852 1.75553 11.038C1.61471 11.1243 1.49632 11.2427 1.41003 11.3835C1.35728 11.4695 1.31031 11.5998 1.28384 11.8782C1.25648 12.166 1.25581 12.5421 1.25581 13.1023C1.25581 13.9367 1.25648 14.5183 1.29926 14.9683C1.34115 15.4089 1.41896 15.658 1.5334 15.8447C1.68873 16.0982 1.90183 16.3113 2.15529 16.4666C2.34204 16.581 2.59113 16.6589 3.03174 16.7008C3.4817 16.7435 4.06335 16.7442 4.89767 16.7442C5.45794 16.7442 5.83405 16.7435 6.12182 16.7162C6.40024 16.6897 6.53048 16.6427 6.61657 16.59C6.75738 16.5037 6.87577 16.3853 6.96206 16.2445C7.01482 16.1584 7.06178 16.0281 7.08826 15.7498C7.11562 15.4619 7.11628 15.0859 7.11628 14.5256V13.6047C7.11628 12.7976 7.11495 12.2554 7.06058 11.8511C7.00863 11.4647 6.91886 11.2993 6.80977 11.1902C6.70066 11.0812 6.53531 10.9914 6.14898 10.9394Z" fill="#0D0D0D"/>
  <path d="M13.1539 9.62793H14.8604V10.8837H13.186C12.5851 10.8837 12.1815 10.8845 11.8739 10.9158C11.5769 10.946 11.4396 10.9994 11.3488 11.0601C11.2346 11.1365 11.1364 11.2346 11.0601 11.3488C10.9994 11.4397 10.946 11.577 10.9157 11.874C10.8844 12.1816 10.8837 12.5851 10.8837 13.1861H9.62787V13.154C9.62787 12.5934 9.62787 12.1256 9.66638 11.7469C9.70673 11.3505 9.79439 10.9827 10.0159 10.6512C10.1839 10.3998 10.3997 10.1839 10.6511 10.016C10.9826 9.79445 11.3504 9.70679 11.7468 9.66644C12.1255 9.62793 12.5933 9.62793 13.1539 9.62793Z" fill="#0D0D0D"/>
  <path d="M9.62787 17.372V14.8604H10.8837V17.372C10.8837 17.7188 10.6025 17.9999 10.2558 17.9999C9.909 17.9999 9.62787 17.7188 9.62787 17.372Z" fill="#0D0D0D"/>
  <path d="M18 10.2558C18 9.90906 17.7189 9.62793 17.3721 9.62793C17.0253 9.62793 16.7442 9.90906 16.7442 10.2558V13.1861H18V10.2558Z" fill="#0D0D0D"/>
  <path d="M16.7442 14.8604C16.7442 15.259 16.7438 15.5266 16.7297 15.7338C16.716 15.9353 16.6913 16.0334 16.6646 16.0981C16.5583 16.3544 16.3545 16.5582 16.0982 16.6645C16.0336 16.6912 15.9354 16.7159 15.7339 16.7296C15.5267 16.7437 15.2591 16.7441 14.8605 16.7441H13.186V17.9999H14.8816C15.2537 17.9999 15.5644 17.9999 15.8194 17.9825C16.0849 17.9644 16.3356 17.9254 16.5787 17.8247C17.1429 17.591 17.5911 17.1428 17.8248 16.5786C17.9255 16.3355 17.9645 16.0848 17.9826 15.8193C18 15.5643 18 15.2537 18 14.8815V14.8604H16.7442Z" fill="#0D0D0D"/>
  <path d="M12.4899 12.7207C12.3489 12.9319 12.3489 13.2259 12.3489 13.8137C12.3489 14.4016 12.3489 14.6956 12.4899 14.9068C12.5511 14.9982 12.6295 15.0767 12.7209 15.1378C12.9322 15.2789 13.2261 15.2789 13.814 15.2789C14.4019 15.2789 14.6958 15.2789 14.9071 15.1378C14.9985 15.0767 15.0769 14.9982 15.138 14.9068C15.2791 14.6956 15.2791 14.4016 15.2791 13.8137C15.2791 13.2259 15.2791 12.9319 15.138 12.7207C15.0769 12.6293 14.9985 12.5508 14.9071 12.4897C14.6958 12.3486 14.4019 12.3486 13.814 12.3486C13.2261 12.3486 12.9322 12.3486 12.7209 12.4897C12.6295 12.5508 12.5511 12.6293 12.4899 12.7207Z" fill="#0D0D0D"/>
</svg>
