<svg width="19" height="19" viewBox="0 0 19 19" fill="none" xmlns="http://www.w3.org/2000/svg">
  <path d="M4.14449 8.19763L9.74194 2.08791C10.1943 1.554 10.1288 0.753977 9.59552 0.301039C9.06229 -0.151901 8.26329 -0.0862694 7.81093 0.447647L0.367382 8.57242C0.260346 8.6801 0.173612 8.80625 0.111353 8.94479C0.033931 9.11701 -0.00400285 9.3044 0.000334103 9.49322L0.000352677 9.49439C0.00466257 9.68278 0.0507557 9.86786 0.135295 10.0362C0.143516 10.0525 0.152087 10.0686 0.161002 10.0846C0.212592 10.177 0.275637 10.2625 0.34864 10.3391L7.9901 18.594C8.46546 19.1076 9.26655 19.138 9.77939 18.662C10.2922 18.1861 10.3226 17.3839 9.84729 16.8705L4.16606 10.7331H17.7339C18.4331 10.7331 19 10.1655 19 9.46537C19 8.76521 18.4331 8.19761 17.7339 8.19761H4.14449V8.19763Z" fill="black"/>
</svg>
