<svg width="9" height="9" viewBox="0 0 9 9" fill="none" xmlns="http://www.w3.org/2000/svg">
<path d="M3.40911 0.473684H4.02632V1.42105H3.69616L2.27511 2.36842H1.18421C1.05347 2.36842 0.947368 2.47453 0.947368 2.60526V7.81579C0.947368 7.94653 1.05347 8.05263 1.18421 8.05263H7.81579C7.94653 8.05263 8.05263 7.94653 8.05263 7.81579V3.78947H9V7.81579C9 8.46995 8.46995 9 7.81579 9H1.18421C0.530053 9 0 8.46995 0 7.81579V2.60526C0 1.95111 0.530053 1.42105 1.18421 1.42105H1.98805L3.40911 0.473684ZM4.5 4.02632C3.97658 4.02632 3.55263 4.45026 3.55263 4.97368C3.55263 5.49711 3.97658 5.92105 4.5 5.92105C5.02342 5.92105 5.44737 5.49711 5.44737 4.97368C5.44737 4.45026 5.02342 4.02632 4.5 4.02632ZM2.60526 4.97368C2.60526 3.92732 3.45363 3.07895 4.5 3.07895C5.54637 3.07895 6.39474 3.92732 6.39474 4.97368C6.39474 6.02005 5.54637 6.86842 4.5 6.86842C3.45363 6.86842 2.60526 6.02005 2.60526 4.97368ZM6.86842 0C6.86842 0.784895 6.23226 1.42105 5.44737 1.42105V1.89474C6.23226 1.89474 6.86842 2.53089 6.86842 3.31579H7.34211C7.34211 2.53089 7.97826 1.89474 8.76316 1.89474V1.42105C7.97826 1.42105 7.34211 0.784895 7.34211 0H6.86842Z" fill="white"/>
</svg>
