<svg width="15" height="15" viewBox="0 0 15 15" fill="none" xmlns="http://www.w3.org/2000/svg">
<path d="M10.3568 11.4918C9.0667 12.4931 7.44356 12.9652 5.81768 12.812C4.1918 12.6588 2.68544 11.8916 1.60521 10.6668C0.524982 9.44189 -0.0479144 7.85142 0.00314131 6.21904C0.0541979 4.58666 0.725368 3.03508 1.88003 1.88014C3.03489 0.725409 4.58637 0.0542012 6.21866 0.00314151C7.85097 -0.0479174 9.44129 0.525012 10.6661 1.60531C11.8909 2.68561 12.658 4.19207 12.8112 5.81804C12.9644 7.44401 12.4923 9.06728 11.491 10.3575L14.7439 13.6105C14.8496 13.7086 14.9268 13.8334 14.9674 13.9717C15.0081 14.11 15.0107 14.2567 14.975 14.3964C14.9393 14.5361 14.8666 14.6635 14.7645 14.7653C14.6624 14.8671 14.5348 14.9395 14.3951 14.9749C14.2556 15.0107 14.109 15.0082 13.9708 14.9677C13.8326 14.9272 13.7079 14.8501 13.6097 14.7448L10.3568 11.4918ZM11.2342 6.41948C11.2437 5.78128 11.1263 5.14757 10.8887 4.55518C10.651 3.9628 10.2979 3.42359 9.85004 2.96892C9.40208 2.51425 8.86827 2.15318 8.2795 1.90672C7.69078 1.66028 7.05892 1.53336 6.42069 1.53336C5.78246 1.53336 5.1506 1.66028 4.56187 1.90672C3.97313 2.15318 3.43928 2.51425 2.99136 2.96892C2.54344 3.42359 2.1904 3.9628 1.95277 4.55518C1.71513 5.14757 1.59765 5.78128 1.60717 6.41948C1.62602 7.68376 2.14145 8.8899 3.04211 9.77722C3.94277 10.6646 5.15635 11.1621 6.42069 11.1621C7.68502 11.1621 8.89857 10.6646 9.79928 9.77722C10.6999 8.8899 11.2154 7.68376 11.2342 6.41948Z" fill="#717171"/>
</svg>
