<svg width="9" height="12" viewBox="0 0 9 12" fill="none" xmlns="http://www.w3.org/2000/svg">
<path d="M4.5 0C2.01488 0 0 2.01488 0 4.5C0 5.47856 0.320813 6.3765 0.854063 7.11188C0.863625 7.1295 0.865125 7.14919 0.876 7.16606L3.876 11.6661C4.01513 11.8748 4.2495 12 4.5 12C4.7505 12 4.98487 11.8748 5.124 11.6661L8.124 7.16606C8.13506 7.14919 8.13637 7.1295 8.14594 7.11188C8.67919 6.3765 9 5.47856 9 4.5C9 2.01488 6.98512 0 4.5 0ZM4.5 6C3.67162 6 3 5.32838 3 4.5C3 3.67162 3.67162 3 4.5 3C5.32838 3 6 3.67162 6 4.5C6 5.32838 5.32838 6 4.5 6Z" fill="#A9A9A9"/>
</svg>
