<svg width="16" height="14" viewBox="0 0 16 14" fill="none" xmlns="http://www.w3.org/2000/svg">
<path d="M16 3.76466C16 3.09375 15.4556 2.54981 14.7847 2.54981C14.1133 2.54981 13.5688 3.09375 13.5688 3.76466C13.5688 4.09278 13.6992 4.39016 13.9107 4.60841C13.084 6.32031 11.5039 6.91797 10.2793 6.37697C9.1885 5.89453 8.78616 4.51563 8.64991 3.44728C9.09472 3.21341 9.39797 2.74756 9.39797 2.20997C9.39794 1.438 8.77247 0.8125 8 0.8125C7.22803 0.8125 6.60206 1.438 6.60206 2.20997C6.60206 2.74756 6.90528 3.21338 7.35012 3.44728C7.21391 4.51566 6.81156 5.89456 5.72072 6.37697C4.49609 6.918 2.91603 6.32031 2.08938 4.60841C2.30081 4.39016 2.43119 4.09278 2.43119 3.76466C2.43119 3.09375 1.88675 2.54981 1.21584 2.54981C0.544438 2.54981 0 3.09375 0 3.76466C0 4.38281 0.461906 4.89209 1.05859 4.96925L2.45947 10.0967H13.5405L14.9414 4.96925C15.5386 4.89209 16 4.38281 16 3.76466Z" fill="black"/>
<path d="M14.2192 12.2827C14.2192 12.7822 13.8145 13.187 13.3145 13.187H2.68556C2.18603 13.187 1.78125 12.7822 1.78125 12.2827V12.2075C1.78125 11.7075 2.18603 11.3027 2.68556 11.3027H13.3145C13.8145 11.3027 14.2192 11.7075 14.2192 12.2075V12.2827Z" fill="black"/>
</svg>
